<?xml version="1.0" encoding="UTF-8"?>
<svg id="Layer_1" data-name="Layer 1" xmlns="http://www.w3.org/2000/svg" viewBox="0 0 276.74 383.21">
  <defs>
    <style>
      .cls-1 {
        fill: #231f20;
      }
    </style>
  </defs>
  <path class="cls-1" d="M0,145.69c5.74-8.96,15.98-13.73,30.06-13.73,22.69,0,35.24,12.38,35.24,34.72v8.77h-22.69v-9.63c0-8.77-4.3-13.58-12.03-13.58s-11.86,4.81-11.86,13.58v56.04c0,8.77,4.3,13.58,11.86,13.58s12.03-4.81,12.03-13.58v-13.06h22.69v12.2c0,22.35-12.55,34.72-35.24,34.72-14.08,0-24.32-4.77-30.06-13.73v141.22h81.95V93.45H0v52.24Z"/>
  <polygon class="cls-1" points="95.18 133.68 163.83 133.68 163.83 154.65 138.74 154.65 138.74 254 114.67 254 114.67 154.65 95.18 154.65 95.18 345.65 177.13 345.65 177.13 55.89 95.18 55.89 95.18 133.68"/>
  <polygon class="cls-1" points="194.79 0 194.79 133.68 252.04 133.68 252.04 154.65 210.62 154.65 210.62 182.49 243.62 182.49 243.62 203.46 210.62 203.46 210.62 233.03 252.04 233.03 252.04 254 194.79 254 194.79 289.76 276.74 289.76 276.74 0 194.79 0"/>
</svg>