<?xml version="1.0" encoding="UTF-8"?>
<svg id="Layer_1" data-name="Layer 1" xmlns="http://www.w3.org/2000/svg" xmlns:xlink="http://www.w3.org/1999/xlink" viewBox="0 0 697.28 550.56">
  <defs>
    <style>
      .cls-1 {
        fill: #231f20;
      }

      .cls-2 {
        fill: url(#linear-gradient);
        filter: url(#drop-shadow-1);
      }
    </style>
    <linearGradient id="linear-gradient" x1="22.21" y1="268.29" x2="226.41" y2="268.29" gradientUnits="userSpaceOnUse">
      <stop offset="0" stop-color="#fff57c"/>
      <stop offset="0" stop-color="#fcf47b"/>
      <stop offset=".15" stop-color="#9ed360"/>
      <stop offset=".26" stop-color="#62be4f"/>
      <stop offset=".3" stop-color="#4cb749"/>
      <stop offset=".31" stop-color="#4cb74f"/>
      <stop offset=".38" stop-color="#54be84"/>
      <stop offset=".45" stop-color="#5ac3ae"/>
      <stop offset=".51" stop-color="#5fc7cc"/>
      <stop offset=".56" stop-color="#62cadf"/>
      <stop offset=".59" stop-color="#63cbe6"/>
      <stop offset=".78" stop-color="#74a5d1"/>
      <stop offset="1" stop-color="#8a77b7"/>
    </linearGradient>
    <filter id="drop-shadow-1" x="0" y="0" width="234.48" height="550.56" filterUnits="userSpaceOnUse">
      <feOffset dx="-7" dy="7"/>
      <feGaussianBlur result="blur" stdDeviation="5"/>
      <feFlood flood-color="#000" flood-opacity=".75"/>
      <feComposite in2="blur" operator="in"/>
      <feComposite in="SourceGraphic"/>
    </filter>
  </defs>
  <g>
    <path class="cls-1" d="M305.45,190.2h29.64v23.95c0,20.51-1.03,46.35-27.92,46.35s-29.98-28.78-29.98-69.79c0-30.67,3.62-63.58,31.19-63.58,15.51,0,23.26,10.34,26.54,24.47l-11.89,4.65c-1.38-7.75-4.65-17.4-14.13-17.4-17.92.17-19.3,27.92-19.3,50.83,0,48.08,6.03,59.1,18.61,59.1,13.61,0,14.82-9.99,14.82-37.74v-9.82h-17.58v-11.03Z"/>
    <path class="cls-1" d="M351.97,258.78v-129.93h12.92c18.09,0,35.5,1.38,35.5,33.08,0,16.54-3.62,32.74-24.47,33.43l28.78,63.41h-12.75l-27.57-63.58h-.34v63.58h-12.06ZM364.04,185.37h4.31c16.89,0,19.64-5.86,19.64-22.92,0-20.51-6.2-22.57-21.54-22.57h-2.41v45.49Z"/>
    <path class="cls-1" d="M470.18,258.78h-12.92l-4.82-26.71h-27.57l-4.65,26.71h-12.92l25.5-129.93h11.37l26.02,129.93ZM450.54,221.56l-8.62-49.8c-1.55-8.79-2.24-17.75-3.27-26.54h-.69c-1.21,8.79-2.07,17.75-3.45,26.54l-7.58,49.8h23.61Z"/>
    <path class="cls-1" d="M480.52,258.78v-129.93h13.44c18.61,0,35.15,1.72,35.15,33.77,0,25.16-8.79,33.95-33.43,33.95h-3.1v62.21h-12.06ZM492.58,185.55h4.65c16.89,0,18.96-6.2,19.47-22.92,0-17.92-4.82-22.75-21.71-22.75h-2.41v45.66Z"/>
    <path class="cls-1" d="M596.14,258.78h-12.06v-67.03h-29.81v67.03h-12.06v-129.93h12.06v51.87h29.81v-51.87h12.06v129.93Z"/>
    <path class="cls-1" d="M628.87,258.78h-12.06v-129.93h12.06v129.93Z"/>
    <path class="cls-1" d="M697.28,255.16c-4.48,3.1-10.86,5.34-16.54,5.34-30.5,0-34.98-39.81-34.98-62.03,0-21.02.69-71.34,36.19-71.34,4.83,0,11.37,1.21,15.34,4.14v13.27c-4.83-3.27-9.13-5.69-15.16-5.69-21.02,0-23.95,30.5-23.95,54.62,0,15.16,0,55.31,23.09,55.31,5.86,0,11.37-2.58,16.03-5.86v12.23Z"/>
    <path class="cls-1" d="M283.57,282.68h13.1c24.81,0,41.01,3.1,41.01,64.96,0,50.83-8.27,64.96-40.15,64.96h-13.96v-129.93ZM295.63,401.58h3.45c23.26,0,26.19-16.37,26.19-53.94,0-44.63-4.65-53.93-27.57-53.93h-2.07v107.87Z"/>
    <path class="cls-1" d="M405.74,293.71h-28.78v45.84h27.92v11.03h-27.92v51.01h28.78v11.03h-40.84v-129.93h40.84v11.03Z"/>
    <path class="cls-1" d="M478.62,303.19c-5.17-5.86-10.86-10.51-19.13-10.51-12.06,0-18.78,9.99-18.78,21.02,0,15.16,11.03,22.23,22.23,29.81,11.03,7.75,22.06,16.03,22.06,33.95,0,18.95-12.23,36.88-32.57,36.88-7.24,0-14.65-2.07-20.51-6.55v-15.68c5.51,5.86,12.75,10.51,21.02,10.51,12.75,0,19.82-11.2,19.64-22.92.17-15.16-11.03-21.88-22.06-29.64-11.03-7.58-22.23-16.03-22.23-34.64,0-17.4,10.68-34.46,29.81-34.46,7.75,0,14.3,2.58,20.51,6.89v15.34Z"/>
    <path class="cls-1" d="M522.9,412.61h-12.06v-129.93h12.06v129.93Z"/>
    <path class="cls-1" d="M578.39,344.03h29.64v23.95c0,20.51-1.03,46.35-27.92,46.35s-29.98-28.78-29.98-69.79c0-30.67,3.62-63.58,31.19-63.58,15.51,0,23.26,10.34,26.54,24.47l-11.89,4.65c-1.38-7.75-4.65-17.4-14.13-17.4-17.92.17-19.3,27.92-19.3,50.83,0,48.08,6.03,59.1,18.61,59.1,13.61,0,14.82-10,14.82-37.74v-9.82h-17.58v-11.03Z"/>
    <path class="cls-1" d="M689.35,412.61h-10.51l-29.29-87.36c-1.9-5.34-2.93-11.2-4.48-16.71h-.69c.52,8.44,1.38,16.71,1.38,25.16v78.92h-10.51v-129.93h10.51l29.81,90.29c1.55,4.48,2.76,8.96,3.96,13.44h.52c-.34-5.69-1.21-11.54-1.21-17.23v-86.5h10.51v129.93Z"/>
  </g>
  <path class="cls-2" d="M161.43,10.72h-20.75v515.13h22.11c50.5,0,63.61-21.71,63.61-99.83V110.55c0-95.07-25.66-99.83-64.97-99.83ZM207.21,426.02c0,57.73-5.1,82.89-41.96,82.89h-5.46V27.67h3.28c36.31,0,44.14,14.3,44.14,82.89v315.46ZM41.86,419.66c0,73.88,9.56,90.83,29.48,90.83,21.57,0,23.48-15.36,23.48-57.99v-79.83h-27.85v-16.95h46.96v101.55c0,31.51-1.64,71.23-44.23,71.23s-47.5-44.22-47.5-107.25V105.79c0-47.14,5.73-97.71,49.41-97.71,24.57,0,36.85,15.89,42.04,37.6l-18.84,7.15c-2.18-11.92-7.37-26.75-22.39-26.75-28.39.26-30.58,42.9-30.58,78.12v315.46Z"/>
</svg>