<?xml version="1.0" encoding="UTF-8"?>
<svg xmlns="http://www.w3.org/2000/svg" version="1.1" viewBox="0 0 612 792">
  <!-- Generator: Adobe Illustrator 29.8.2, SVG Export Plug-In . SVG Version: 2.1.1 Build 3)  -->
  <defs>
    <style>
      .st0, .st1 {
        fill: #231f20;
      }

      .st2 {
        fill: #eb1f26;
        stroke: #231f20;
        stroke-miterlimit: 10;
        stroke-width: .25px;
      }

      .st1 {
        display: none;
      }
    </style>
  </defs>
  <g id="Camera">
    <path class="st0" d="M285.03,328.82l.11-3.16-1.27-1.29.72-.49-.61-6.63-1.02.55.08-1.05s-.08-.28-.77-.28c0,0,.5-2.12,1.29-2.64l-1.93-20.46s.3-1.24-9.19-2.56c0,0,.22,1.84-.83,2.12,0,0-1.6-.82-1.68-2.72h-3.93l.66,6.77,1.16,6.79.33,5.83.41,4.37.77.72s.39,1.02-.66.88l.99,9.32s.49,1.07.58,1.38c.08.3-.44,1.18-.44,1.18,0,0-.22.78.14.88l14.22,4.15-.16-2.42s1.99.4,1.02-1.24ZM275.5,306.75c-1.88-.12.49-2.87.49-2.87,1.77,1.36-.49,2.87-.49,2.87ZM279.2,309.08s.33,2.93-3.11,3.07c0,0-.43-3.49,3.11-3.07ZM278.1,325.42l-1.26-1.51.08-2.15h.83l.35,2.78v.87ZM282.17,318.57s1.67,1.24,1.79,1.67c.12.43-2.81-.37-2.81-.37l1.01-1.3Z"/>
    <path class="st0" d="M270.88,287.86h1.24l2.43-1.65,4.4-.91s1.79-1.44,8.51-2.15h5.65v-1.2s-.98-.83-3.61-1.11l3.36-7.67s-.83-1.16,7.38-3.55l6.97-2.52s.99-1.44,8.17,2.31l-10.73,2.6s-3.09-.08-4.08,6.68c-.99,6.77-2.89,6.85-2.89,6.85l-10.27,4.08s-.74.37-1.44,0l.03-1.55s-.17-.44-.51,0c0,0,.26,2.28-1.44,2.31s-3.28-.05-3.28-.05l-1.79-.26-1.03-.92s-.57-.16-.46.22.12.46.12.46l-.57.02-4.86-1.51-1.3-.48Z"/>
    <g>
      <path class="st0" d="M322.1,277.04s-3.66-4.54-3.93-5.12-.8-.36-.8-.36c0,0-10.01,2.17-12.02,2.7s-2.12,2.28-2.12,2.28l-1.84,6.28s0,.03-.02.04c-1.38,2.59.95,1.19.95,1.19,0,0,18.81-5.56,19.58-5.91.77-.36.19-1.1.19-1.1ZM314.95,279.05c-.99.33-6.35,1.65-6.35,1.65,0,0-1.76.74-2.28-1.46,0,0-.91-2.72.55-3.03,1.46-.3,6.35-1.73,6.35-1.73,0,0,1.76-.82,1.98,1.15,0,0,.74,3.08-.25,3.41Z"/>
      <path class="st0" d="M308.26,278.55h1.97s.07,0,.1-.02l3.45-1.79-1.81-.11s-.08,0-.11.02l-3.6,1.9Z"/>
    </g>
    <path class="st0" d="M320.81,272.2s2.2-1.35,3.96-1.49,6.57.17,6.57.17l6.3,2.12-7.81,2.5.03-2.41s-.44-.83-3.55-.78c-3.11.06-2.72,2-2.72,2,0,0-.5,1.63,3.03,2.12,0,0-.94.63-1.82.74s-1.4-.96-1.4-.96c0,0-2.94-4.07-2.59-4.02Z"/>
    <g>
      <path class="st0" d="M318.78,296.89s-10.1.78-10.52,15.26c0,0-.7,8.46,4.37,11.92h1.28s1.45.25-.41-1.82c0,0-1.61-3.92-1.49-10.11,0,0,.04-.35-.61-.2s-1,0-1,0c0,0-.37-.31.69-.56s1-.43,1-.43l.99-5.3s.41-4.65,5.69-8.77Z"/>
      <path class="st0" d="M314.13,317.71l2.2.86-1.1-3.61s-.11-5.8.83-8.21,3.69-4.88,3.69-4.88c0,0,4.07-3.41,8.53.39l.95,1.63.26,2.22s.33,1.32.66,1.54c0,0,.51,9.35-1.2,10.12l1.27.8.25.35s3.05-1.94,3.14-6.19,0-4.37,0-4.37c0,0-.37-.44-.37.83l-.85-.44,1.26-1.18s.42-4.1-1.15-5.06c0,0-.72.33-1.1.33s-.25-2.94-.25-2.94c0,0-.28-.74-1.32-.69s-2.12.5-2.12.5c0,0-.91-.03.41-1.16l.83-.55s-.64-.74-4.71-.69c-4.07.06-6.16,2.86-6.16,2.86,0,0-3,2.64-3.93,7.95-.94,5.31,0,9.6,0,9.6Z"/>
      <path class="st0" d="M328.47,321.89l-.29-2.6,2.02.54s.17,1.44-1.73,2.06Z"/>
      <path class="st0" d="M324.66,322.3c-.24.14.33.47.33.47v.72s-1.02.77-1.43.74c-.41-.03-1.35-.88-1.35-.88-2.86-.91-4.15-2.56-4.51-2.89-.36-.33-.63-.22-.63-.22,0,0-.3.03-.94.52-.63.49-.52.99-.52.99l2.78,3.27s.25-1.27.63-1.24.5.77.5.77c0,0-.06.55,0,1.05.05.5.6.52.6.52,0,0,.8.03,1.02,0,.22-.03.72-.47.72-.47l.72-.47h1.62c1.82-.63,3.08-2.17,3.08-2.17v-2.26l-2.61,1.54ZM321.61,325.52c-.52-.03-.66-.58-.66-.58v-.74l.8-.8.14.44.14,1.4s.11.3-.41.28Z"/>
    </g>
    <path class="st0" d="M328.49,311.72s.61-9.19-4.13-9.08-6.16,4.11-6.16,4.11c0,0-2.97,6.23,0,10.74,0,0,1.34,2.9,3.83,2.88s4.86-2.93,4.86-2.93c0,0,1.6-3.03.39-3.03s.66-.72.66-.72c0,0,.55,0,.55-1.98Z"/>
    <g>
      <path class="st0" d="M346.13,303.2l1.69,1.49v-1.07s.15-.56-1.16-.56v-.22h.94l.04-1.69s-1.02-.41-1.68-.43l.41.66.04.51-.22.5-.07.83Z"/>
      <path class="st0" d="M347.2,305.18c-1.32,3.67-2.02,0-2.02,0-1.77-1.2-.21-3.63-.21-3.63l1.03-1.65c-.95-1.73-.33-2.06-.33-2.06l1.69,1.4-.29-6.93s-.39-.07-.72-.4.33-1.71.33-1.71l-1.54-11.66c-1.87-.66-.55-1.92-.55-1.92-.39-1.87-4.02-1.65-4.02-1.65,0,0-.49.5-.94.5s-1.16-.5-1.16-.5l-54.53,17.66.41,13.96s.87,5.65.93,7.11c.06,1.45,3.07,6.14,3.07,6.14l-.08,2.97-.78.04,2,1.25.27,1.44-1.77.86c-1.61,2.02,0,2.35,0,2.35h1.51c1.51,1.32,2.04,1.03,2.04,1.03,4.54,0,5.2-1.86,5.2-1.86,1.32,0,1.82-1.24,1.82-1.24.83,1.39,2.02,1.24,2.02,1.24l8.87-2.56c-.04-3.14-.83-2.93-.83-2.93-2.05.26-1.32-2.06-1.32-2.06h.92c-1.23-.82-1.62-9.49-1.62-9.49,0,0,.21-16.01,14.88-16.5,14.68-.5,13.99,13.53,13.99,13.53,4.21-.08,3.38.78,3.38.78l-3.42.12s.04,3.3.08,4.29-1.32,3.63-1.32,3.63c-.54,2.1.37,2.81.37,2.81l2.89-1.4-.37-1.36s.66.66,1.65.7c.99.04,1.73-2.02,1.73-2.02l1.28.78.58-1.03c4.99,0,5.61-5.03,5.61-5.03v-3.36c0-.8-.74-1.63-.74-1.63ZM294.11,298.09h1.24c-.12,2.97-1.69,3.2-1.69,3.2-1.49-1.75.45-3.2.45-3.2ZM291.51,329.4l-.95-1.53s1.57-.95,2.58-.33-1.63,1.86-1.63,1.86ZM292.87,321.77c-1.28.21-1.86-1.86-1.86-1.86,0,0-.66-1.32.91-1.16,1.57.17,2.76,2.09,2.76,2.09,0,0-.54.71-1.82.92ZM294.44,318.22c-1.32-.04-2.39-1.94-2.39-1.94h4.04s-.33,1.98-1.65,1.94ZM296.58,302.64c-1.73-.85.29-2.69.29-2.69,2.56,1.44-.29,2.69-.29,2.69ZM338.25,285.78c-2.23.47-6.24,1.6-6.24,1.6,0,0-1.65.58-2.04-.88-.39-1.46-1.04-3.11-1.04-3.11,0,0-.82-1.96.71-2.57l7.04-2.84s1.71-.77,2.2.82c.5,1.6.88,3.25.88,3.25,0,0,.72,3.27-1.51,3.74ZM343.67,310.75l-1.68-.72s1.8-2.23,2.08-2.2c.27.03-.4,2.92-.4,2.92ZM342.13,292.91s-.91.33-.96-.47c-.05-.8.96-.88.96-.88l1.84-.72.16,1.4-2.01.66Z"/>
      <path class="st0" d="M331.78,282.06l4.24-1.62s1.43-.63,1.51.19.85,2.97-.36,3.19l-4.29,1.32s-1.62.96-1.65-.88v-.99s-.1-.96.55-1.21Z"/>
    </g>
  </g>
  <g id="Text">
    <path class="st0" d="M203.98,335.42c4.48.84.13,4.27-.8,6.34.28.17-1.1.81-.71,1.3-.17.07,0,.25-.17.13.07.86-1.26,1.98-1.34,2.6-.66.98-1.92,3.04-2.48,4.24-.13,0-.16.09-.08.17-.31.1-.4.66-.5.92-.23.24-.83,1.37-1.05,1.76-.69,1.42-1.86,4.05-2.73,5.67-.57,1.05-.93,2.38-1.55,3.78-.03,0-.04-.01-.04-.04-.03.05-.07.12,0,.17-.68,1.37-1.35,3.53-2.02,5v-.08c.06,1.24-1.81,1.81-2.77,1.64-.02.27-.69-.36-.5-.29-.58-1.13-1.41-2.66-1.39-3.57v.04c-.3-.73-.5-1.46-.5-2.23.06,0,.08-.03.08-.08-.05,0-.07-.87-.17-1.09l-.04.04c0-.12-.12-.85-.04-.97,0-.07-.09-.11,0-.17-.26-2.75-.33-6.02-.04-8.78-.03-.07-.17-.19,0-.21-.05-.23-.12-.72.04-.97,0-.03-.01-.04-.04-.04.07-.32.09-.96.13-1.18-.21,0,.26-.61.04-.76-.11-.02,0-.09.04-.13-.06,0-.09,0-.08-.08v.04c.46-2.12.35-4.31.65-6.51v.04c.07-.18.26-1.08.1-1.26.25-.79.09-1.92.38-2.77-.2-.17.04-.56.09-.8l-.04.04c-.06-.07-.02-.12.04-.17-.19-.05.02-.3.04-.46,1.64-.86,3.38.77,3.23,2.73-.09.09.04.16-.04.25.08,4.84-.86,9.99-.76,14.66-.26,2.25.05,4.79,0,7.01,2.13-3.82,4.03-9.35,6.93-13.02-.06-.68,1.24-1.48,1.13-2.18,2.41-2.97,4.93-7.41,7.01-10.75h-.04Z"/>
    <path class="st0" d="M209.23,352.51c1.05.15.73,1.11,0,1.68l.04-.04c-1.48,2.3-3.32,5.01-4.62,7.43-.04.07-.7.68-.5.8-.34.34-.95.67-.8,1.18-.45.34-.75,1.18-1.55,1.72-.84.27-3.02-.58-3.11-1.51v.04c-.15-.01-.34-.33-.21-.46-1.12-2.86-.04-5.96,1.39-9.03v.04c.49-1.61,1.87-3.35,2.73-5.04-.03.03-.04.06-.04.08.33-1.86,2.44-.99,3.36-.04-.67,2.95-3.45,5.71-3.95,8.95-.49,1.24-.79,2.85-.97,4.28,1.73-1.95,2.68-4.06,4.49-6.13l-.04.04c.57-.85,1.85-2.45,2.6-3.4v.08c.25-.41.62-.85,1.18-.67ZM205.83,344.41c-2.22-.26,1.65-8.01,3.32-6.59v-.04c.1.01.23.16.34.04,5.15,1.33-2.94,4.4-2.44,7.56-.31-.02-1.27-.46-1.22-.97Z"/>
    <path class="st0" d="M225.57,336.85c4.55,1.26-1.32,5.17-2.31,7.9,0,.41-.63.74-.63,1.18-.43.63-1.03,1.11-.63,1.47-.39.17-.44.72-.59,1.13-.19.12-.76,1.9-1.18,2.27v-.04c0,.06.04.1.13.13-.13-.09-.45.87-.5.84.09.45-.44.88-.5,1.3l.04-.08s.01.06.04.08c-.41.6-.79,2-.84,2.69-.18.69-.17,1.31-.5,1.81l.04-.08c-.16,1.43-.71,2.42-.55,3.78-.43,4.59,5.14-8.3,6.09-8.74h-.04c2.44.43-1.14,3.6-1.3,4.87h.08c-.54.62-.88,1.78-1.13,2.48-.95,1.61-1.13,3.87-2.39,5.08h.08c-1.34.91-2.81-.64-3.7-1.68,0-.03.01-.06.04-.08-1.91-1.16.18-9.64-1.18-5.8-.45.3-.61,1.07-.84,1.6-.1,0-.22.08-.13.17-.11.11-.17.15-.17.12,0,.03.04.06.13.08-.32.33-.43.56-.55.71.11.17-.37.16-.17.34-.22.11-.19.13,0,.21-2.62,3.78-5.86-1.32-5.08-4.28-.03,0-.06-.01-.08-.04.13-.05-.03-.6.17-.59-.3-.32.12-1.14.21-1.34.12-.66.16-2.15.71-2.39v.04c.53-1.86,2.01-2.91,3.61-3.99.32-.33,1.84-.49,2.52-.29.97.58,2.62,2.13,2.81.42v.04c.43-.5.67-1.06.8-1.64v.04c1.64-2.31,4.2-10.8,7.48-9.7ZM210.41,359.19c1.36-1.59,1.65-2.49,2.65-4.12h-.04c.52-.96.95-1.73,1.72-2.65.25-.7,1.45-1.7,1.01-2.56-1.12-.03-2.01.65-2.44,1.43v-.04c-.59.31-.82,1.38-1.13,1.43l-.04.04.08.08c-.48.68-.98,1.07-.88,1.6,0,.53-.4,1.16-.55,1.64v-.04c-.17.9-.76,2.36-.5,3.44.13-.07,0-.15.13-.25Z"/>
    <path class="st0" d="M238.59,352.76c1.9,1.89-3.47,4.32-4.96,6.85v-.04c-.11.5-.83.86-1.22.97-.06.11-.08.15-.08.13v.04c-.93,0-1.71,1.55-3.02,1.93-.03.02-.07.08,0,.08-.33,0,0,.09-.34.08,0,.06.05.02.04.08-.28-.04-.07.18-.29.04.04.19-.33-.03-.17.17-2.42,1.33-4.88.11-6.43-2.06l.08-.04c-.55-.17-.54-.66-.58-1.55.03,0,.06-.01.08-.04-.05-.13-.12-.41,0-.59-.1.03-.13-.4,0-.38-.07-.11-.11-.12,0-.21-.05,0-.08,0-.08-.08.28-2.14.98-4.22,2.12-6.17.5-.56,1.02-1.19,1.7-2.1,0,.03-.01.04-.04.04.7-.83,1.95-1.61,3.07-1.93.98-.75,3.22.29,4.45.63h-.04c1.42.36,1.21,2.25,1.28,3.38-.19,1-1.25,1.87-1.37,2.84-.39.23-.6,1.26-1.2,1.15-.09-.04-.32.16-.19.27-1.1.81-2.93,2.37-4.24.88l.04.04c-.22-.14-.88-.75-.97-.92-.69,1.99-2.54,6.63,1.18,4.75-.12-.28,1.05-.52,1.13-.67h-.08c.61-.04,1.36-1.16,2.14-1.22.72-.88,2.47-1.47,3.02-2.65.61.14,1-1.29,1.55-1.26.85-.57,2.42-3.18,3.4-2.44ZM228.76,352.34c-.13.03-.33.49-.42.34h.04c-2.98,3.23-.2,2.81,1.76.17,0,.03-.01.04-.04.04.21-.42.43-1.03.84-1.22l-.04-.08c.19-.05.88-1.09.8-1.34-1.47.69-2.05,1-2.94,2.1Z"/>
    <path class="st0" d="M245.06,349.66c2.26-.8,10.72.89,3.97,1.81-5.17-.2-1.68,2.22-3.47,5.63l-.04-.04c-.42,1.17-1.08,1.94-1.39,2.9l-.04.04-.04-.04c-.42,1.02-.86,1.56-1.39,2.23-.06,0-.02-.05-.08-.04-.18,1.19-1.2,1.85-2.18,2.6l.08-.04c-1.19,1.41-3.56.47-4.12-1.01-2.66-2.17-1.21-6.32.29-8.57,1.1-2.79,4.86-8.89,8.06-6.05-.1.2.18.46.34.59ZM239.39,360.58c.52-1.07,1.93-2.21,2.39-3.28,1.17-1.29,3.2-8.46.46-3.74v-.04c-.04.41-.46.67-.71.97l.04-.04c.08.09-.38.74-.46.76.07.18-.34.78-.46.76-1.1,1.35-.98,2.64-1.89,4.16-.16,1.37-.61,1.83.63.46Z"/>
    <path class="st0" d="M252.11,348.31c.46.74,1.56-.14,1.39.92-2,1.12-4.28-1.73-2.73-3.65.49-2,2.63-2.49,3.11-4.2h.17c2.27-2.8,6.02-4.59,9.24-6.3,3.02-1.1,6.91-2.28,10-.21h-.04c4.54,2.47,3.42,8.7.88,12.18v-.04c-1.87,2.84-3.52,4.95-6.26,7.14,0,.03.01.06.04.08-2.17,1.94-3.54,2.98-5.92,4.33-.03,0-.06-.01-.08-.04,0,.19-.07.11-.17.08-.92.6-2.55.84-3.61.5-1.54,1.83-1.13,12.28-4.14,9.26-.8-.64-.89-1.14-.65-2.08-.08-1.17.46-3.18.8-4.41,0-.06-.03-.08-.08-.08.27-.66.36-1.63.55-2.23.2-.9.6-2.52.84-3.61-.24-.94-1.16-4.31.5-3.95-.04.32.21.35.38.17,1.36-2.11,1.97-6.25,3.36-8.53.58-1.63,1.66-3.5,2.35-4.96-3.17,1.89-6.88,3.89-8.69,7.14-.49.83-1.2,1.42-1.22,2.48ZM259.59,356.17c.11-.09.31-.2.5-.25,1.28-1.01,3.34-2.29,4.62-3.57.51-.54,1.45-1.25,1.81-1.89v.04c1.41-1.35,3.23-4.25,4.75-5.54.18-1.02,1.62-2.51,1.76-3.57.22-.34.41-.65.46-1.01v.04c1.45-3.59-1.99-4.73-4.98-4.09-4.19,2.74-5.46,10.91-7.75,15.56-.41.84-2.37,4.79-1.18,4.28Z"/>
    <path class="st0" d="M286.55,352.68c2.22.34-1.21,3.12-1.39,4.16-1,1.04-.86,2.21-1.93,2.98.15.2-.29.13-.08.42-.68.37-.64,1.73-1.13,1.72,0,.03.01.06.04.08l-.04.04-.04-.04c.05,1.13-1.26,1.58-1.34,2.48l.04-.08c-.57,1.27-1.63,3.38-2.18,4.07v-.08c-.46,1.26-2.44,2.42-3.4,1.18l.04.04c-1.24-.3-2.46-1.87-2.02-3.36-.02-.08-.18-.15,0-.17,0-.21-.14-.75.08-.84.22-3.77,2.24-7.84,3.7-11.42-3.98.31-6.2-3.9-3.28-6.55.4-1.85,2.75-2.12,4.2-.9.82.6-.79,1.23-.76,1.95l-.04-.04c.03.22-.17.14-.04.29-4.53,6.55,5.81-.18,3.53,6.3-1.56,3.91-3.42,7.97-4.03,12.22,1.49-2.49,3.17-4.83,4.41-7.35v.08c.41-.59.83-1.58,1.39-2.14h-.08c1.66-1.83,2.12-4.47,4.37-5.04Z"/>
    <path class="st0" d="M293.27,349.66c2.26-.8,10.72.89,3.97,1.81-5.17-.2-1.68,2.22-3.47,5.63l-.04-.04c-.42,1.17-1.08,1.94-1.39,2.9l-.04.04-.04-.04c-.42,1.02-.86,1.56-1.39,2.23-.06,0-.02-.05-.08-.04-.18,1.19-1.2,1.85-2.18,2.6l.08-.04c-1.19,1.41-3.56.47-4.12-1.01-2.66-2.17-1.21-6.32.29-8.57,1.1-2.79,4.86-8.89,8.06-6.05-.1.2.18.46.34.59ZM287.6,360.58c.52-1.07,1.93-2.21,2.39-3.28,1.17-1.29,3.2-8.46.46-3.74v-.04c-.04.41-.46.67-.71.97l.04-.04c.08.09-.38.74-.46.76.07.18-.34.78-.46.76-1.1,1.35-.98,2.64-1.89,4.16-.16,1.37-.61,1.83.63.46Z"/>
    <path class="st0" d="M314.31,336.85c4.56,1.26-1.32,5.17-2.31,7.9,0,.41-.63.74-.63,1.18-.43.63-1.03,1.11-.63,1.47-.39.17-.44.72-.59,1.13-.19.12-.76,1.9-1.18,2.27v-.04c0,.06.04.1.13.13-.13-.09-.45.87-.5.84.09.45-.44.88-.5,1.3l.04-.08s.01.06.04.08c-.41.6-.79,2-.84,2.69-.18.69-.17,1.31-.5,1.81l.04-.08c-.16,1.43-.71,2.42-.55,3.78-.43,4.59,5.14-8.3,6.09-8.74h-.04c2.44.43-1.14,3.6-1.3,4.87h.08c-.54.62-.88,1.78-1.13,2.48-.95,1.61-1.13,3.87-2.39,5.08h.08c-1.34.91-2.81-.64-3.7-1.68,0-.03.01-.06.04-.08-1.91-1.16.18-9.64-1.18-5.8-.45.3-.61,1.07-.84,1.6-.1,0-.22.08-.13.17-.11.11-.17.15-.17.12,0,.03.04.06.13.08-.32.33-.43.56-.55.71.11.17-.37.16-.17.34-.22.11-.19.13,0,.21-2.62,3.78-5.86-1.32-5.08-4.28-.03,0-.06-.01-.08-.04.13-.05-.03-.6.17-.59-.3-.32.12-1.14.21-1.34.12-.66.16-2.15.71-2.39v.04c.53-1.86,2.01-2.91,3.61-3.99.32-.33,1.84-.49,2.52-.29.97.58,2.62,2.13,2.81.42v.04c.43-.5.67-1.06.8-1.64v.04c1.64-2.31,4.2-10.8,7.48-9.7ZM299.15,359.19c1.36-1.59,1.65-2.49,2.65-4.12h-.04c.52-.96.95-1.73,1.72-2.65.25-.7,1.45-1.7,1.01-2.56-1.12-.03-2.01.65-2.44,1.43v-.04c-.59.31-.82,1.38-1.13,1.43l-.04.04.08.08c-.48.68-.98,1.07-.88,1.6,0,.53-.4,1.16-.55,1.64v-.04c-.17.9-.76,2.36-.5,3.44.13-.07,0-.15.13-.25Z"/>
    <path class="st1" d="M533.46,316.34c4.56,1.26-1.32,5.17-2.31,7.9,0,.41-.63.74-.63,1.18-.43.63-1.07,2.18-1.22,2.6l-.04-.08c-.16.59-.75,1.85-1.13,2.35v-.04c0,.06.04.1.13.13-.13-.09-.45.87-.5.84.09.45-.44.88-.5,1.3l.04-.08s.01.06.04.08c-.41.6-.79,2-.84,2.69-.18.69-.17,1.31-.5,1.81l.04-.08c-.16,1.43-.71,2.42-.55,3.78-.69,4.98,5.31-8.54,6.09-8.74h-.04c2.44.43-1.14,3.6-1.3,4.87h.08c-.54.62-.88,1.78-1.13,2.48-.19.8-.92,1.76-1.13,2.48.21.3-.21.72-.34,1.09-.4.51-.25,1.4-.92,1.51h.08c-.59.43-1.43.41-1.93-.21-.53.09-1.4-1.07-1.76-1.47,0-.03.01-.06.04-.08-1.44-1.9-.87-4.62-.59-6.72.27-.83-.67.54-.59.92-.53.29-.42,1.01-.88,1.51l.04.08c-.1,0-.22.08-.13.17-.11.11-.17.15-.17.12,0,.03.04.06.13.08-.32.33-.43.56-.55.71,0,.06.05.02.04.08-.21.08-.32.13-.21.25-.22.11-.19.13,0,.21-2.62,3.78-5.86-1.32-5.08-4.28-.03,0-.06-.01-.08-.04.13-.05-.03-.6.17-.59-.3-.32.12-1.14.21-1.34.12-.66.71-2.35.71-2.35.53-1.86,2.01-2.91,3.61-3.99.32-.33,1.84-.49,2.52-.29.97.57,2.65,2.16,2.81.42v.04c.43-.5.67-1.06.8-1.64v.04c1.51-3.01,3.45-6.86,5.59-9.53.91-.59.94-.47,1.89-.17ZM518.3,338.69c1.36-1.59,1.65-2.49,2.65-4.12h-.04c.52-.97.95-1.73,1.72-2.65.25-.7,1.45-1.7,1.01-2.56-1.12-.03-2.01.65-2.44,1.43v-.04c-.59.31-.82,1.38-1.13,1.43l-.04.04.08.08c-.48.68-.98,1.07-.88,1.6,0,.53-.4,1.16-.55,1.64v-.04c.13.19-.3.53-.17.76-.23.65-.52,1.96-.34,2.69.13-.07,0-.15.13-.25Z"/>
    <path class="st0" d="M329.81,353.06c-1.43,1.94-2.67,4.52-4.2,6.47-.1,0-.76.76-.67.97-1.14.97-1.92,3.03-3.49,3.7-2.66-.72-3.26-3.63-2.44-5.96-.2-.26.48-1.32.25-1.51-1.62,1.81-5.21,8.76-7.52,3.78-.06,0-.08-.01-.08-.04.03.03.04.06.04.08,0-.17-.47-1.12-.21-1.26-.14.01-.07-.08,0-.13-.16.03-.05-.29,0-.25,0-.05-.05-.04-.08-.04,0-.08.03-.09.08-.08-.15-.38.09-1.13.17-1.64h-.04c.57-2.2,1.13-3.52,2.27-5.84.85-1.45,2.92-4.39,4.33-1.39l.04-.04c.34.66-1.2,1.09-.88,1.85-.19,0-.13.08-.08.17.09.13-.47.42-.34.67-1.04,1.81-2.02,4.26-2.48,6.34,2.09-2,2.85-3.71,5.21-5.88l-.08.08c.51-1.06,1.83-1.87,2.35-3.02v.04c1.14-2.05,3.81-.32,2.48,2.14-.73,1.56-1.59,3.35-2.02,5.21-.76,1.83-2.09,6,.67,2.06v.04c1.99-1.42,3.91-8.62,6.72-6.51Z"/>
    <path class="st0" d="M343.93,352.81c-.78,1.45-2.55,3.01-3.61,4.41-3.33,4-9.19,11.52-13.4,4.03-.3-.36-.58-1.2-.55-1.93.05.02.07-.06.08-.08-.18-.05-.04-.26,0-.46-.06,0-.08-.03-.08-.08.03.01.07-.02.08-.04-.02-.04-.09-.04-.08-.08v.04c.81-3.31,2.57-6.92,5.67-9.11l-.04.04c.11-.37.82-.86,1.34-.8,0-.06-.05-.07-.04-.13v.04c.5-.52,2.03-.65,2.98-.38h-.08c1.16.56,2.6,1.07,3.3,2.31.75.91-.49,2.03-.9.71l.04.04c-.57-.53-1.34-.36-1.97-.29-.06.07-.44.31-.55.25.03,0,.04-.01.04-.04-2.02,1.24-3.93,3.22-4.79,5.63-.31.32-.25.31-.38.76-3.69,8.77,3.74,1.78,6.51-.59,1.59-.61,4.27-6.18,6.43-4.24Z"/>
    <path class="st0" d="M355.31,337.52c-7.18,9.6-3.3,3.68,1.95,6.87,1.57,1.38-5.85,1.2-6.85,1.95-3.31,3.5-4.17,9.83-5.82,14.36,0,.8-.22,1.5-.5,2.27v-.08c.07.18-.05.53-.04.76.36-.46.88-1.33,1.13-1.85h-.04c1.54-2.53,3.89-5.97,5.08-8.44-.06,0-.04.09-.04.13.24-1.24,2.83-2.6,3.02-.8-1.1,1.33-2.26,2.9-2.9,4.45l.04-.04c-.27.28-.39.42-.38.59v-.04s.01.06.04.08c-.47.42-.87.89-.92,1.47v-.08s.01.06.04.08c-.42.49-.6,1.07-.92,1.55v-.04l.04.08c-.28.32-.66.92-.71,1.26-.2.14-.51.6-.5.92-.14,0-.16.05-.08.13-.69.81-1.39,2.58-1.85,3.53v-.04s.01.06.04.08c-.15-.08-.32.73-.38.71v-.04c.08.76-.39,1.05-.71,1.3h.08-.04v.17s-.04-.01-.04-.04c-.12.4-.41.54-.97.55.02-.2-.41-.3-.59-.29h.13c-.21.01-.38-.09-.25-.17-.37.24-.28-.5-.59-.29-.34-.16-1.04-1.14-.92-1.6-.48-1.3-.21-3.15-.17-4.66-.03,0-.09,0-.08-.04.06-.02.18-.42.17-.59-.22-.29.23-1.13.17-1.51h.04c.05-.25.12-.56.17-.8v.08c-.04-2.11,1.23-4.27,1.64-6.34.31-.28.32-.5.25-.84l.04.04c.54-1.16.74-1.63.88-2.31v.04c.2-1.02,1.05-2.17,1.26-3.15-9.32.57-5.67-1.81,1.18-2.48,2.11-2.97,4.75-12.81,8.9-6.89Z"/>
    <path class="st0" d="M360.51,352.51c1.05.15.73,1.11,0,1.68l.04-.04c-1.48,2.3-3.32,5.01-4.62,7.43-.04.07-.7.68-.5.8-.34.34-.95.67-.8,1.18-.45.34-.75,1.18-1.55,1.72-.84.27-3.02-.58-3.11-1.51v.04c-.15-.01-.34-.33-.21-.46-1.12-2.86-.04-5.96,1.39-9.03v.04c.49-1.61,1.87-3.35,2.73-5.04-.03.03-.04.06-.04.08.33-1.86,2.44-.99,3.36-.04-.67,2.95-3.45,5.71-3.95,8.95-.49,1.24-.79,2.85-.97,4.28,1.73-1.95,2.68-4.06,4.49-6.13l-.04.04c.57-.85,1.85-2.45,2.6-3.4v.08c.25-.41.62-.85,1.18-.67ZM357.11,344.41c-2.22-.26,1.65-8.01,3.32-6.59v-.04c.1.01.23.16.34.04,5.15,1.33-2.94,4.4-2.44,7.56-.31-.02-1.27-.46-1.22-.97Z"/>
    <path class="st0" d="M368.41,349.66c2.26-.8,10.72.89,3.97,1.81-5.21-.17-1.65,2.14-3.46,5.63l-.04-.04c-.42,1.17-1.08,1.94-1.39,2.9l-.04.04-.04-.04c-.41,1.02-.86,1.56-1.39,2.23-.06,0-.02-.05-.08-.04-.18,1.19-1.2,1.85-2.18,2.6l.08-.04c-1.19,1.41-3.56.47-4.12-1.01-2.66-2.17-1.21-6.32.29-8.57,1.1-2.79,4.86-8.89,8.06-6.05-.1.2.19.46.34.59ZM362.74,360.58c.52-1.07,1.93-2.21,2.39-3.28,1.17-1.29,3.2-8.46.46-3.74v-.04c-.04.41-.46.67-.71.97l.04-.04c.08.09-.38.74-.46.76.07.17-.34.78-.46.76-1.1,1.35-.98,2.64-1.89,4.16-.16,1.36-.61,1.83.63.46Z"/>
    <path class="st0" d="M389.83,352.22c.43,1.48-3.13,3.56-3.11,5.21-.91.72-.59,1.47-1.76,2.39-1.72,2.77-4.33,7.99-7.06,2.1.07.05.08-.49-.04-.5.09-.39-.1-.98.04-1.34-.06,0-.02-.05-.08-.04.24-1.06.51-2.25.76-3.32-.05.01-.04-.15-.04-.21l-.04.04v-.13.21c.33-.64.94-2.58,1.09-3.07-.24.48-.51.7-1.22,1.47.04-.05.04-.12.08-.17-1.73,1.78-3.25,5.26-5.5,6.55-.5.12-1.3-.65-1.47-1.09-.06.08-.13.03-.13-.08-.41.1-.52-.67-.59-.92.85-3.12,1.94-8.23,3.44-10.92,3.92.42,1.81,4.06,1.14,6.53.48.38,6.14-8.13,8.19-6.99.64-.39,1.15.27,1.55.84-.59,4.3-4.24,8.17-4.28,13.02.19.05.28-.47.5-.42,0-.06-.05-.07-.04-.13,2.74-2.48,4.44-7.65,7.85-9.28-.1.15.57.04.71.25Z"/>
  </g>
  <g id="Wings">
    <path class="st2" d="M266.03,290.21l3.08,22.98c.12.92-.78,1.65-1.66,1.32-2.15-.82-5.64-1.99-8.1-2.02-3.8-.06-9.74-.06-9.74-.06,0,0-4.62.3-5.06-1.94-.41-2.1,3.38-2.35,3.86-2.38.04,0,.07,0,.11-.01.69-.1,6.99-1.12,3.24-3.15l-8.35.05c-.08,0-.15,0-.23.02-1.01.2-8.76,1.61-17.27-.19,0,0-22.66-4.02-22.83-10.45,0,0-.61-3.41,14.19.5,0,0,5.28,1.21,24.15.88,0,0,12.53-.44.16-2.73-.07-.01-.13-.02-.2-.02-2.51-.06-54.14-2.47-58.39-24.96-.13-.69.43-1.32,1.13-1.37.8-.06,2.03.15,3.83,1.19,3.8,2.2,24.53,12.82,50.05,17.38,0,0,13.7,3.11,1.02-2.3-.09-.04-.19-.07-.28-.08-3.24-.55-61.35-10.96-67.65-48.76-.11-.63.49-1.21,1.11-1.02.69.21,1.86,1.2,3.16,2.94,2.86,3.85,19.46,22.98,51.12,33.1.02,0,.04.01.07.02,1.24.49,38,15.16,39.49,21.05Z"/>
  </g>
</svg>