<?xml version="1.0" encoding="UTF-8"?>
<svg id="Layer_1" data-name="Layer 1" xmlns="http://www.w3.org/2000/svg" viewBox="0 0 199.1 213.61">
  <defs>
    <style>
      .cls-1 {
        fill: #231f20;
      }
    </style>
  </defs>
  <g>
    <path class="cls-1" d="M23.6,72.43c0-14.69-2.84-23.01-9.93-23.01-1.63,0-3.19.46-4.64,1.42C3.24,61.89,0,74.19,0,87.16s3.35,25.67,9.33,36.87c8.57-11.75,14.28-34.57,14.28-51.6Z"/>
    <path class="cls-1" d="M189.96,50.65c-.14.3-.38.23-.87-.06-.44-.26-1.2-.52-2.07-.52-6,0-12.55,12.22-17.35,23.14l-2.84,6.76c-.33.65.11,1.04.44.52,6.11-9.62,10.47-13.13,16.47-13.13,7.96,0,12.27,6.29,11.56,13.78-2.45,25.89-22.25,60.97-32.29,60.97-7.09,0-11.45-5.98-11.45-14.3,0-4.94,1.53-9.23,2.4-12.35.22-.78-.87-.65-1.2.13-.65,1.43-1.31,3.64-2.4,6.89-.66,1.82-3.05,2.86-5.35,2.86-2.45,0-4.58-1.25-4.07-3.73-7.23,11.72-16.59,21.71-28.44,21.71-8.95,0-14.84-5.72-15.05-16.51-.44-19.11,16.91-58.37,36.44-58.37,6.11,0,9.82,3.77,9.82,10.53,0,10.79-9.49,34.58-29.89,33.41-.98,4.16-1.64,8.06-1.64,11.05,0,5.59,2.07,8.19,6.65,8.19,12.55,0,21.71-20.02,27.27-31.72.5-.95,1.37-1.36,2.26-1.42,3.91-10.94,8.43-22.61,12.03-31.77,5.73-14.69,12.23-28.04,19.67-30.8C161.97,14.15,132.65,0,99.55,0S38.66,13.42,20.47,34.22c11.57,2.35,18.19,15.01,18.19,35.35,0,15.47-6.66,33.8-13.86,50.83l.76.65c16.15-15.6,34.8-56.16,37.31-71.24,1.53-1.82,4.58-2.86,7.31-2.86,3.16,0,6.11,1.3,6.33,3.9,1.74,20.15-2.29,45.37-13.09,69.29l.54.78c17.13-10.92,28.69-44.46,37.09-66.82,6.33-16.64,11.45-30.81,22.47-30.81,6.55,0,9.38,7.28,6.76,16.25-.22.65-.44.78-.98.26-.76-.78-1.85-1.3-2.95-1.3-4.47,0-7.96,9.75-12.65,21.71-11.56,29.51-28.69,76.96-66.11,80.47-2.4-1.43-5.24-5.98-3.27-10.92,5.02-3.77,16.91-34.06,18.66-45.37.33-1.95-.44-2.21-1.31-.13-13.27,30.06-27.92,46.31-42.14,54.76,18.14,21.42,47.22,35.31,80.02,35.31,54.98,0,99.55-39.02,99.55-87.16,0-13.04-3.27-25.4-9.13-36.51Z"/>
    <path class="cls-1" d="M133.13,79.35c-5.46,0-12.55,12.61-16.91,25.09,16.04-1.82,19.31-19.11,19.31-21.84,0-2.21-.87-3.25-2.4-3.25Z"/>
    <path class="cls-1" d="M181.78,94.53c.87-3.51,1.42-6.76,1.53-9.49.22-3.51-.87-5.59-2.95-5.72h-.33c-8.18,0-18.87,28.34-19.75,40.56-.22,3.25,1.31,5.98,3.6,6.11,4.04,0,8.95-7.41,12.76-16.51-2.18-1.3-1.74-5.46-.44-9.1,1.31-3.77,3.93-6.11,5.56-5.85Z"/>
  </g>
  <g>
    <path class="cls-1" d="M40.72,198.05l-4.03,1.07c-.71.18-1.38.1-2-.27l-10.47-6.14,12.51-21.33,10.38,6.09c.62.36,1.02.88,1.19,1.56l1.11,4.13c.19.71.1,1.38-.27,1.99l-6.86,11.7c-.36.62-.88,1.02-1.56,1.19ZM47.15,184.08c.1-.17.12-.36.07-.56l-1.02-3.7c-.05-.2-.16-.36-.34-.46l-8.23-4.83-10.22,17.42,8.26,4.85c.17.1.36.12.56.07l3.75-1.03c.2-.05.35-.17.46-.34l6.7-11.42Z"/>
    <path class="cls-1" d="M66.48,210.25l-14.81-4.09,6.58-23.83,14.81,4.09-.6,2.18-12.6-3.48-2.39,8.66,12.6,3.48-.6,2.18-12.6-3.48-2.38,8.62,12.6,3.48-.6,2.18Z"/>
    <path class="cls-1" d="M95.79,209.8l-3.34,2.88c-.56.47-1.2.68-1.92.62l-8.58-.73c-.72-.06-1.31-.37-1.78-.92l-3.49-4.11,1.77-1.53,3.27,4.04c.14.16.31.25.54.27l8.25.71c.2.02.38-.04.54-.18l3.06-2.68c.16-.13.25-.3.27-.5l.31-3.59c.02-.2-.03-.37-.14-.51-.11-.15-.27-.24-.46-.28l-14.46-3.06c-.64-.13-1.15-.46-1.55-.99-.4-.53-.57-1.13-.52-1.8l.37-4.33c.06-.71.39-1.32.98-1.82l3.44-2.76c.58-.45,1.2-.64,1.84-.59l8.43.72c.71.06,1.3.36,1.75.88l3.49,4.11-1.73,1.46-3.43-3.94c-.14-.16-.3-.25-.5-.27l-8.06-.69c-.2-.02-.38.04-.54.18l-3.09,2.53c-.16.13-.25.3-.27.5l-.32,3.74c-.02.2.03.37.14.51.11.15.26.24.46.28l14.46,3.06c.63.13,1.15.46,1.55.99.4.53.57,1.13.52,1.8l-.37,4.25c-.06.67-.35,1.25-.89,1.75Z"/>
    <path class="cls-1" d="M116.03,212.94l-11.82.67-.13-2.26,4.74-.27-1.14-20.16-4.74.27-.13-2.26,11.82-.67.13,2.26-4.71.27,1.14,20.16,4.71-.27.13,2.26Z"/>
    <path class="cls-1" d="M142.88,208.17l-1.67-3.66-2.47,3.81c-.43.6-.96.97-1.62,1.11l-6.96,1.52c-.7.15-1.36.03-1.98-.36l-3.53-2.26c-.62-.4-1-.94-1.16-1.65l-2.87-13.14c-.15-.7-.03-1.36.37-1.98l2.32-3.62c.4-.62.95-1,1.65-1.16l8.41-1.84c.65-.14,1.3-.03,1.93.33l4.57,2.81-1.16,2-4.41-2.8c-.18-.11-.36-.15-.55-.11l-8.23,1.8c-.22.05-.38.16-.5.34l-2.01,3.33c-.11.18-.15.36-.11.56l2.79,12.75c.04.19.15.35.33.46l3.32,2.17c.18.11.36.15.56.11l6.64-1.45c.19-.04.35-.15.46-.33l3.34-5.23c.11-.18.15-.36.11-.56l-.82-3.75-7.18,1.57-.48-2.21,9.43-2.06,1.89,8.64.02.07s.07.17.19.45c.12.28.32.71.59,1.29.27.59.65,1.43,1.14,2.54l-2.32.51Z"/>
    <path class="cls-1" d="M172.71,195l-3.31,1.77-20.9-14.39,10.61,19.88-2.03,1.08-11.66-21.84,3.34-1.78,20.88,14.44-10.63-19.91,2.03-1.08,11.66,21.84Z"/>
  </g>
</svg>